<?xml version="1.0" encoding="utf-8"?>
<!-- Generator: Adobe Illustrator 16.0.4, SVG Export Plug-In . SVG Version: 6.00 Build 0)  -->
<!DOCTYPE svg PUBLIC "-//W3C//DTD SVG 1.0//EN" "http://www.w3.org/TR/2001/REC-SVG-20010904/DTD/svg10.dtd">
<svg version="1.0" id="Layer_1" xmlns="http://www.w3.org/2000/svg" xmlns:xlink="http://www.w3.org/1999/xlink" x="0px" y="0px"
	 width="1387.41px" height="226.489px" viewBox="0 0 1387.41 226.489" enable-background="new 0 0 1387.41 226.489"
	 xml:space="preserve">
<g>
	<path fill="#231F20" d="M569.643,191.663c6.509,4.062,17.279,7.219,28.725,7.219c18.177,0,32.539-9.473,39.045-39.008L641,143.642
		h-0.67c-9.425,15.555-22.666,23.222-37.702,23.222c-21.764,0-32.985-18.488-32.985-37.877
		c-0.225-36.976,26.93-73.726,68.893-73.726c12.566,0,26.255,3.606,34.781,7.666l-16.604,90.183
		c-4.49,22.998-10.548,39.006-21.99,48.7c-10.773,9.472-25.358,12.177-37.925,12.177c-13.241,0-25.582-3.156-32.539-7.664
		L569.643,191.663z M652.895,73.975c-3.364-1.579-10.096-3.607-17.951-3.607c-27.15,0-45.777,28.406-46.001,55.462
		c0,11.948,4.263,26.151,20.868,26.151c15.933,0,32.091-20.291,36.128-41.709L652.895,73.975z"/>
	<path fill="#231F20" d="M764.425,160.551c-8.078,4.732-21.317,8.566-35.903,8.566c-28.724,0-41.288-19.615-41.288-43.738
		c0-32.917,24.233-70.12,59.241-70.12c20.646,0,31.862,12.401,31.862,27.958c0,28.633-32.088,36.298-72.255,35.621
		c-0.898,4.736-0.225,14.881,2.242,20.744c4.264,9.692,13.016,14.654,24.235,14.654c12.791,0,22.44-4.059,29.174-7.667
		L764.425,160.551z M743.78,69.916c-17.729,0-30.966,17.362-35.456,34.496c29.174,0.225,52.062-3.609,52.062-20.519
		C760.387,74.876,753.654,69.916,743.78,69.916z"/>
	<path fill="#231F20" d="M836.461,28.432l-5.609,29.308h26.029l-2.915,14.655h-26.033l-10.097,52.984
		c-1.123,6.086-2.02,11.724-2.02,17.584c0,6.537,3.142,10.371,10.32,10.371c3.144,0,6.284-0.228,8.753-0.676l-0.898,14.654
		c-3.363,1.352-8.977,2.027-14.359,2.027c-16.605,0-22.891-10.146-22.891-21.192c0-6.312,0.673-12.625,2.245-20.517l10.771-55.237
		H794.05l2.916-14.655h15.484l4.712-24.575L836.461,28.432z"/>
	<path fill="#231F20" d="M930.037,166.863c0-6.54,1.124-16.909,2.469-28.184h-0.45c-11.89,22.546-26.7,30.663-42.186,30.663
		c-19.074,0-31.193-15.33-31.193-36.072c0-37.878,27.829-78.01,75.177-78.01c10.321,0,21.768,1.805,29.174,4.284l-10.995,56.815
		c-3.593,18.938-5.164,38.328-4.715,50.503L930.037,166.863L930.037,166.863z M942.156,71.721c-2.694-0.678-6.732-1.58-13.018-1.58
		c-28.05,0-50.938,29.535-51.161,59.747c0,12.174,4.263,24.125,18.623,24.125c15.485,0,33.886-20.294,39.272-49.376L942.156,71.721z
		"/>
	<path fill="#231F20" d="M1023.167,6.787l-14.359,70.794h0.447c9.648-14.655,23.564-22.321,38.15-22.321
		c23.786,0,32.761,19.841,32.761,39.23c0,33.369-24.012,74.852-67.543,74.852c-19.074,0-33.439-7.893-33.439-28.182
		c0-5.186,0.899-11.725,1.798-16.912l23.562-117.461H1023.167z M999.606,124.702c-0.899,3.606-1.569,8.116-1.348,13.754
		c0,10.371,5.837,16.231,17.505,16.231c28.051,0,45.104-33.593,45.104-57.718c0-13.525-5.837-26.152-20.647-26.152
		c-16.155,0-32.761,16.683-38.146,42.386L999.606,124.702z"/>
	<path fill="#231F20" d="M1092.959,166.863L1113.83,57.74h18.626l-20.868,109.123H1092.959z M1117.197,27.304
		c0-7.214,5.609-12.626,12.343-12.626s10.995,4.959,10.995,11.724c-0.225,7.44-5.388,12.626-12.567,12.626
		C1121.461,39.028,1117.197,34.067,1117.197,27.304z"/>
	<path fill="#231F20" d="M1144.575,166.863l30.068-160.077h18.622l-19.068,100.33h0.446c3.363-3.834,7.404-7.891,10.097-11.047
		l38.375-38.329h22.887l-47.346,44.867l32.535,64.256h-20.645l-26.03-53.885l-13.688,12.401l-7.854,41.482L1144.575,166.863
		L1144.575,166.863z"/>
	<path fill="#231F20" d="M1321.857,160.551c-8.079,4.732-21.316,8.566-35.902,8.566c-28.725,0-41.293-19.615-41.293-43.738
		c0-32.917,24.234-70.12,59.243-70.12c20.644,0,31.865,12.401,31.865,27.958c0,28.633-32.089,36.298-72.261,35.623
		c-0.895,4.734-0.223,14.879,2.246,20.742c4.267,9.693,13.016,14.655,24.236,14.655c12.79,0,22.438-4.059,29.17-7.667
		L1321.857,160.551z M1301.214,69.916c-17.728,0-30.971,17.362-35.457,34.496c29.172,0.225,52.061-3.609,52.061-20.519
		C1317.816,74.876,1311.084,69.916,1301.214,69.916z"/>
</g>
<path fill="#231F20" d="M325.653,56.952c-21.779,8.78-45.569,13.621-70.497,13.621c-36.29,0-70.175-10.257-98.952-27.998
	c-0.959-0.679-1.922-1.352-2.917-1.995c-1.27-0.822-2.553-1.604-3.847-2.353c-39.6-22.839-90.59-10.865-115.716,27.951
	c-25.948,40.083-14.486,93.614,25.597,119.563c26.434,17.11,58.711,17.944,85.074,5.039c6.057-2.966,11.803-6.652,17.092-11.037
	c27.613-15.811,59.57-24.895,93.668-24.895c24.745,0,48.369,4.773,70.02,13.434c-10.868-15.734-17.244-34.797-17.244-55.324
	C307.932,92.134,314.494,72.815,325.653,56.952z M106.303,156.29c-23.824,0-43.137-19.314-43.137-43.141
	c0-23.823,19.313-43.137,43.137-43.137c23.824,0,43.137,19.314,43.137,43.137C149.44,136.974,130.127,156.29,106.303,156.29z
	 M451.823,40.581c-15.851-10.259-33.802-14.809-51.319-14.045c-45.486,2.591-81.572,40.289-81.572,86.424
	c0,47.818,38.761,86.578,86.574,86.578c2.049,0,4.08-0.076,6.093-0.217c25.909-2.041,50.606-15.674,65.82-39.179
	C503.369,120.059,491.906,66.527,451.823,40.581z M406.691,156.29c-23.823,0-43.139-19.314-43.139-43.141
	c0-23.823,19.314-43.137,43.139-43.137c23.821,0,43.137,19.314,43.137,43.137C449.828,136.974,430.514,156.29,406.691,156.29z"/>
</svg>
