<?xml version="1.0" encoding="utf-8"?>
<!-- Generator: Adobe Illustrator 16.0.4, SVG Export Plug-In . SVG Version: 6.00 Build 0)  -->
<!DOCTYPE svg PUBLIC "-//W3C//DTD SVG 1.0//EN" "http://www.w3.org/TR/2001/REC-SVG-20010904/DTD/svg10.dtd">
<svg version="1.0" id="Layer_1" xmlns="http://www.w3.org/2000/svg" xmlns:xlink="http://www.w3.org/1999/xlink" x="0px" y="0px"
	 width="512px" height="512px" viewBox="0 0 512 512" enable-background="new 0 0 512 512" xml:space="preserve">
<g>
	<path fill="#231F20" d="M58.693,400.087c3.377,2.106,8.968,3.745,14.908,3.745c9.434,0,16.888-4.915,20.266-20.245l1.863-8.425
		h-0.349c-4.892,8.074-11.764,12.053-19.567,12.053c-11.298,0-17.121-9.596-17.121-19.659
		c-0.117-19.191,13.976-38.266,35.756-38.266c6.522,0,13.627,1.872,18.053,3.979l-8.619,46.808
		c-2.33,11.937-5.474,20.245-11.414,25.276c-5.591,4.915-13.161,6.319-19.684,6.319c-6.872,0-13.278-1.639-16.888-3.979
		L58.693,400.087z M101.904,339.003c-1.747-0.819-5.241-1.872-9.318-1.872c-14.093,0-23.76,14.744-23.876,28.786
		c0,6.202,2.213,13.574,10.832,13.574c8.269,0,16.655-10.531,18.751-21.648L101.904,339.003z"/>
	<path fill="#231F20" d="M159.791,383.938c-4.193,2.457-11.064,4.446-18.635,4.446c-14.908,0-21.43-10.181-21.43-22.701
		c0-17.085,12.579-36.394,30.748-36.394c10.715,0,16.539,6.437,16.539,14.511c0,14.861-16.655,18.84-37.503,18.489
		c-0.466,2.457-0.116,7.723,1.165,10.766c2.213,5.031,6.755,7.606,12.579,7.606c6.639,0,11.647-2.106,15.141-3.979L159.791,383.938z
		 M149.076,336.896c-9.201,0-16.073,9.011-18.402,17.904c15.142,0.116,27.021-1.873,27.021-10.649
		C157.695,339.471,154.201,336.896,149.076,336.896z"/>
	<path fill="#231F20" d="M197.18,315.365l-2.912,15.212h13.51l-1.514,7.606h-13.511l-5.241,27.5
		c-0.583,3.159-1.048,6.085-1.048,9.127c0,3.394,1.631,5.383,5.358,5.383c1.63,0,3.261-0.117,4.542-0.351l-0.466,7.606
		c-1.747,0.702-4.659,1.053-7.454,1.053c-8.619,0-11.88-5.266-11.88-11c0-3.276,0.35-6.553,1.165-10.648l5.591-28.67h-8.153
		l1.514-7.606h8.036l2.446-12.755L197.18,315.365z"/>
	<path fill="#231F20" d="M245.749,387.215c0-3.394,0.583-8.776,1.281-14.628h-0.233c-6.173,11.702-13.86,15.915-21.896,15.915
		c-9.9,0-16.189-7.957-16.189-18.723c0-19.66,14.442-40.489,39.018-40.489c5.358,0,11.298,0.937,15.142,2.224l-5.707,29.488
		c-1.864,9.83-2.679,19.894-2.446,26.213H245.749z M252.038,337.833c-1.397-0.352-3.494-0.819-6.755-0.819
		c-14.559,0-26.438,15.329-26.555,31.01c0,6.319,2.213,12.521,9.667,12.521c8.037,0,17.587-10.532,20.382-25.628L252.038,337.833z"
		/>
	<path fill="#231F20" d="M294.086,304.131l-7.454,36.744h0.233c5.008-7.606,12.229-11.585,19.8-11.585
		c12.346,0,17.005,10.298,17.005,20.361c0,17.319-12.463,38.851-35.058,38.851c-9.9,0-17.354-4.096-17.354-14.627
		c0-2.691,0.466-6.085,0.932-8.777l12.229-60.967H294.086z M281.856,365.332c-0.466,1.872-0.814,4.213-0.698,7.139
		c0,5.383,3.028,8.425,9.085,8.425c14.559,0,23.41-17.436,23.41-29.957c0-7.021-3.028-13.574-10.716-13.574
		c-8.386,0-17.004,8.659-19.8,22L281.856,365.332z"/>
	<path fill="#231F20" d="M330.311,387.215l10.832-56.638h9.667l-10.832,56.638H330.311z M342.89,314.779
		c0-3.744,2.912-6.553,6.406-6.553s5.707,2.574,5.707,6.085c-0.117,3.861-2.796,6.553-6.522,6.553
		C345.103,320.864,342.89,318.29,342.89,314.779z"/>
	<path fill="#231F20" d="M357.1,387.215l15.606-83.084h9.667l-9.899,52.074h0.232c1.747-1.99,3.844-4.096,5.241-5.734l19.917-19.894
		h11.88l-24.575,23.287l16.888,33.351h-10.715l-13.511-27.968l-7.104,6.437l-4.077,21.531H357.1z"/>
	<path fill="#231F20" d="M449.114,383.938c-4.192,2.457-11.064,4.446-18.635,4.446c-14.908,0-21.431-10.181-21.431-22.701
		c0-17.085,12.578-36.394,30.748-36.394c10.715,0,16.539,6.437,16.539,14.511c0,14.861-16.655,18.84-37.504,18.489
		c-0.466,2.457-0.116,7.723,1.165,10.766c2.213,5.031,6.755,7.606,12.578,7.606c6.64,0,11.647-2.106,15.142-3.979L449.114,383.938z
		 M438.399,336.896c-9.201,0-16.073,9.011-18.402,17.904c15.141,0.116,27.021-1.873,27.021-10.649
		C447.018,339.471,443.523,336.896,438.399,336.896z"/>
</g>
<path fill="#231F20" d="M325.653,143.551c-21.779,8.78-45.569,13.621-70.497,13.621c-36.29,0-70.175-10.257-98.952-27.998
	c-0.959-0.679-1.922-1.352-2.917-1.995c-1.27-0.822-2.553-1.604-3.847-2.353c-39.6-22.839-90.59-10.865-115.716,27.951
	C7.776,192.861,19.239,246.393,59.322,272.34c26.434,17.111,58.711,17.945,85.074,5.04c6.057-2.966,11.803-6.652,17.092-11.038
	c27.613-15.81,59.57-24.894,93.668-24.894c24.745,0,48.369,4.774,70.02,13.433c-10.868-15.733-17.244-34.796-17.244-55.323
	C307.932,178.733,314.494,159.414,325.653,143.551z M106.303,242.888c-23.824,0-43.137-19.314-43.137-43.14
	c0-23.823,19.313-43.137,43.137-43.137s43.137,19.314,43.137,43.137C149.44,223.573,130.127,242.888,106.303,242.888z
	 M451.823,127.18c-15.85-10.259-33.802-14.809-51.319-14.045c-45.486,2.591-81.572,40.289-81.572,86.424
	c0,47.818,38.76,86.578,86.574,86.578c2.049,0,4.08-0.076,6.093-0.217c25.909-2.041,50.606-15.674,65.82-39.179
	C503.369,206.658,491.906,153.126,451.823,127.18z M406.691,242.888c-23.823,0-43.138-19.314-43.138-43.14
	c0-23.823,19.314-43.137,43.138-43.137c23.822,0,43.137,19.314,43.137,43.137C449.828,223.573,430.514,242.888,406.691,242.888z"/>
</svg>
